# xmcd CD database file
#
# Track frame offsets:
#	183
#	25823
#	51728
#	76448
#	98803
#	125500
#	145355
#	167525
#
# Disc length: 2510 seconds
#
# Revision: 0
# Processed by: cddbd v1.5.1PL0 Copyright (c) Steve Scherf et al.
# Submitted via: CDex 1.50
#
DISCID=6b09cc08
DTITLE=Grupo Niche - Cielo de tambores
DYEAR=1992
DGENRE=Salsa
TTITLE0=Cielo de tambores
TTITLE1=Una aventura
TTITLE2=Se parecio tanto a tii
TTITLE3=Doña pastora
TTITLE4=Busca por dentro
TTITLE5=Debiera olvidarla
TTITLE6=Sin sentimiento
TTITLE7=Cali aji
EXTD=YEAR: 1992
EXTT0=
EXTT1=
EXTT2=
EXTT3=
EXTT4=
EXTT5=
EXTT6=
EXTT7=
PLAYORDER=
